<svg id="Calque_1" data-name="Calque 1" xmlns="http://www.w3.org/2000/svg" viewBox="0 0 841.89 595.28"><defs><style>.cls-1{fill:#9d9d9c;}</style></defs><title>toit_Orleans2</title><path class="cls-1" d="M842,331v83h-.11V595.28H0V387.68C0,368.79,0,349.9,0,331c.35-.35.65-.89,1.07-1,7.55-2,7.87-7.68,7.5-14-.23-3.94.15-7.93-.07-11.87-.26-4.43.94-8.07,4.49-10.84a26.14,26.14,0,0,1,5.76-5.25c3.63-2.78,2.68-6.85,2.87-10.54.12-2.29-.49-4.61.41-6.86a3.07,3.07,0,0,1,1.25-1c1.8-.37,3.57-1.19,5.46-.46,3.66,4.64,3.65,4.64,8.42.18a7.12,7.12,0,0,1,2.35-1.82c3.6-.64,6.64-.36,8.56,3.55,1.15,2.35,3.91,3.32,6,4.86.51.41,1.09,1.18,1.6,1.1,6-.88,8.4,3.05,10.65,7.48a7.69,7.69,0,0,0,6,4c3.16.52,6.11,1.5,8.17,4.19,6.63,6.12,14.56,6.68,22.9,5.22a55.9,55.9,0,0,1,8-.5c2.39-.07,4.79-.34,6.33-2.38s3.85-2.44,6.22-2.44c3.71,0,7.59,1.56,11-1.26a1.5,1.5,0,0,1,1.45-.09c7,4.09,15.07-.1,22.32,2.75,2.74,1.08,6,.81,8.92.26a19,19,0,0,1,13.4,2.06A9.27,9.27,0,0,0,192.1,295a11.63,11.63,0,0,1,2.33-1.89c7.44-3.75,9.29-9.88,7.67-17.59-.5-2.39-.39-4.88,2.21-6,2.4-1.08,5.11-1.16,6.94,1,2.08,2.44,3.9,2,6,.31a20.81,20.81,0,0,1,4.23-2.64c3.17-1.48,5.78-1.11,7.68,2.11,2.33,3.94,5.56,6.44,10.34,6.87,3.05.28,5,2.36,6.4,5,1.93,3.75,4.77,6.3,9.08,7.12,3.18.61,5.66,2.71,8.31,4.44,1.14.75,3.61,1.74,3-.88-1.08-4.42,1.61-5.57,4.49-7a199,199,0,0,1,24.59-5.64c3.35-2,7.65-1,10.85-3.45,1.27-.24,2.56-.35,3.85-.48,2.93-.4,5.81-2.12,8.82-.32,1.17.15,2.28.57,3.44.78,4.65-2.3,7.41.32,9.86,3.77a5.35,5.35,0,0,0,4.23,2.79c1.11.16,2,.85,3.11,1.07l1.27.38c2.15.55,4.07,1.82,6.35,2,2.93.71,5,3.3,8,3.73.86.29,1.7.64,2.56.92a12.44,12.44,0,0,0,4,.69c3.64.73,3.91,4.83,6.57,6.53,2.83.34,4.18-1.82,5.85-3.45,2.07-3.08,5.74-4.24,8.22-6.82,1.57-3.61,1.1-7.45,1.27-11.22.1-2.11-.22-4.31,1-6.23,5-2.89,6-2.74,10.07,1.56,3.08.19,3.73-3.8,6.63-3.83,3.52-2.64,6.7-2.19,9.53,1,1.08-2.73.78-5.58,1.1-8.36.39-3.39.82-6.85,4.21-8.85,1.82-.67,2.23-1.91,2.08-3.83a117,117,0,0,1-.49-15.56c.16-3,.87-5.44,3-7.47,1-1.61.32-3.29.12-4.89-.61-4.78-.07-9.26,2.55-13.43,2.24-3.56,2-7.64,2.23-11.63.3-5.26,1.36-6.12,6.55-7a35.2,35.2,0,0,1,15.32.6c2.86.79,4.83,2.35,4.73,5.55a37.82,37.82,0,0,0,3.36,16c1,2.51.73,5.25.89,7.9.08,1.31,0,3.12,1.53,3.33,2,.27,2.26-1.71,2.38-3.14.7-8.82,3-17.37,4.09-26.12.45-3.67,2-5.51,5.57-6.56,6.72-2,13.17-1,19.67.75,2.8.74,3.25,2.9,3.58,5.35,1.71,12.65,2.36,25.43,4.84,38,.8,4.08.16,8.32.33,12.48.2,5.31,1.9,7.17,7.16,7.69,3.64.36,7.32.2,11,.41,4.19.25,5.44-2.74,5.68-6.14.38-5.31.78-10.63,1-15.93.66-14,2.12-27.86,3.26-41.79a9.38,9.38,0,0,1,.61-3.42c1.1-2.29,3.32-2.42,4.56-.16a15.15,15.15,0,0,1,1.57,5.75c1.82,17.37,4.39,34.67,5.26,52.14.3,6.06,1.84,7.57,7.64,8.5,6.11,1,12.22,1.56,18.27-.47a5,5,0,0,1,5.86,1.68c2.18,2.72,5.07,3.62,8.38,3.62,6.8,0,11.67,2.81,14.44,9.29,2.16,5,5.22,9.67,7.83,14.51,1.48,2.75,3.24,4.68,6.73,2.82,1.39-.74,3.72-.77,4.16.41,1.5,4.08,6.11,4.68,8.13,7.8,1.85,2.87,4,3.77,7.12,3.18a45.43,45.43,0,0,1,12.42-.88c3.15.26,4.78-1.48,4.79-4.42,0-6.13,1-12.33-1-18.35a4.2,4.2,0,0,1,.49-4.27c5.71-6.63,9-14.75,13.92-21.9,3.43-5.05,6-5.13,9.29-.09s6,10.37,9.22,15.44a19.5,19.5,0,0,0,4,5.09,5.4,5.4,0,0,1,1.76,7.07,7.87,7.87,0,0,0-.41,2c-1.38,9.53,3.42,15.52,13.11,15.52,5,0,10.56,1,14.28-4a1.11,1.11,0,0,1,.85-.47c6.63.57,13.17-2.82,19.83-.43a5.66,5.66,0,0,0,2.88.66c10.13-1.94,20.08,1.45,30.29,1,7.88-.38,14.16,5.79,19,12.27,1.51,2-.73,4.11-.25,6.18,1.51.75,2.46-.26,2.94-1.18,1.93-3.74,5.23-4.22,8.88-4.15a29.64,29.64,0,0,0,5.49-.27c5.39-.91,10.19-.59,13.41,4.87,1.42,2.41,4.14,3.11,6.93,3.4,5.67.58,13.58,7.39,13.77,13,.19,5.91,2,9.86,7.86,11.48C841.34,330.1,841.64,330.65,842,331Z"/></svg>