<svg id="Calque_1" data-name="Calque 1" xmlns="http://www.w3.org/2000/svg" viewBox="0 0 2478.76 908.38"><defs><style>.cls-1{fill:#939598;}</style></defs><title>toit_Orleans_v3</title><path class="cls-1" d="M2489.78,791.6h.33V546.14c-1.06-1-2-2.66-3.19-3-17.42-4.79-22.68-16.47-23.24-34-.56-16.44-24-36.58-40.72-38.3-8.25-.86-16.3-2.93-20.49-10.06-9.52-16.15-23.72-17.09-39.66-14.4a87.64,87.64,0,0,1-16.24.8c-10.79-.21-20.55,1.21-26.26,12.27-1.42,2.72-4.23,5.71-8.69,3.49-1.42-6.12,5.2-12.3.74-18.28-14.22-19.16-32.8-37.41-56.1-36.29-30.19,1.48-59.62-8.55-89.58-2.81-2.87.56-5.74-.95-8.52-2-19.7-7.07-39,3-58.64,1.27a3.28,3.28,0,0,0-2.51,1.39c-11,14.79-27.53,11.89-42.23,11.89-28.66,0-42.85-17.71-38.77-45.9a23.26,23.26,0,0,1,1.21-5.77c3.61-8.34,2-15.11-5.2-20.91-5-4-8.4-9.61-11.83-15.05-9.49-15-17.6-30.82-27.27-45.66s-17.33-14.67-27.47.27c-14.4,21.15-24.28,45.16-41.17,64.77-3.08,3.61-3,8.1-1.45,12.63,5.89,17.8,2.93,36.14,2.87,54.27,0,8.69-4.85,13.84-14.17,13.07-12.39-1.06-24.58.3-36.73,2.6-9.14,1.74-15.59-.92-21.06-9.4-6-9.23-19.61-11-24-23.07-1.3-3.49-8.19-3.4-12.3-1.21-10.32,5.5-15.53-.21-19.9-8.34-7.72-14.31-16.77-28-23.16-42.91-8.19-19.16-22.59-27.44-42.7-27.47-9.79,0-18.34-2.66-24.78-10.71-4.47-5.53-10.62-7.25-17.33-5-17.89,6-36,4.32-54,1.39-17.15-2.75-21.71-7.22-22.59-25.14-2.57-51.67-10.17-102.83-15.56-154.2-.62-5.91-1.8-11.83-4.64-17-3.67-6.68-10.23-6.3-13.49.47-1.51,3.11-1.54,6.68-1.8,10.11-3.37,41.2-7.69,82.27-9.64,123.59-.74,15.67-1.92,31.41-3,47.11-.71,10.06-4.41,18.9-16.8,18.16-10.82-.62-21.71-.15-32.47-1.21-15.56-1.54-20.58-7-21.17-22.74-.5-12.3,1.39-24.84-1-36.91-7.33-37.14-9.26-74.94-14.31-112.35-1-7.25-2.31-13.63-10.59-15.82-19.22-5.09-38.3-8.07-58.17-2.22-10.59,3.11-15.14,8.55-16.47,19.4-3.19,25.88-10,51.16-12.1,77.25-.35,4.23-1,10.08-7,9.29-4.61-.62-4.29-6-4.52-9.85-.47-7.84.47-15.94-2.63-23.36-6.36-15.17-10.47-30.67-9.94-47.29.3-9.46-5.53-14.08-14-16.41-15-4.17-30-4.26-45.31-1.77s-18.48,5-19.37,20.58c-.68,11.8,0,23.87-6.59,34.39-7.75,12.33-9.35,25.58-7.54,39.72.59,4.73,2.54,9.7-.35,14.46-6.36,6-8.46,13.19-8.93,22.09-.86,15.44.27,30.73,1.45,46,.44,5.68-.77,9.35-6.15,11.33-10,5.91-11.3,16.15-12.45,26.17-.95,8.22-.06,16.65-3.25,24.72-8.37-9.52-17.77-10.85-28.18-3-8.58.09-10.5,11.89-19.61,11.33-12.07-12.72-14.85-13.16-29.78-4.61-3.73,5.68-2.78,12.18-3.08,18.42-.5,11.15.89,22.51-3.76,33.18-7.33,7.63-18.19,11.06-24.31,20.17-4.94,4.82-8.93,11.21-17.3,10.2-7.87-5-8.67-17.15-19.43-19.31-4-.3-8-.47-11.71-2-2.54-.83-5-1.86-7.57-2.72-9-1.27-15.11-8.93-23.78-11-6.74-.38-12.42-4.14-18.78-5.77-1.24-.38-2.48-.77-3.76-1.12-3.19-.65-5.91-2.69-9.2-3.16-5.68-.5-9.61-3.55-12.51-8.25-7.25-10.2-15.41-18-29.16-11.15-3.43-.62-6.71-1.86-10.17-2.31-8.9-5.32-17.42-.24-26.08.95-3.81.38-7.63.71-11.39,1.42-9.46,7.3-22.18,4.35-32.09,10.2-24.69,3.55-48.74,10.06-72.72,16.68-8.52,4.26-16.47,7.66-13.28,20.73,1.86,7.75-5.44,4.82-8.81,2.6-7.84-5.12-15.17-11.33-24.58-13.13-12.75-2.43-21.15-10-26.85-21.06-4.08-7.87-9.91-14-18.93-14.85-14.14-1.27-23.69-8.67-30.58-20.32-5.62-9.52-13.34-10.62-22.71-6.24A61.56,61.56,0,0,0,642.4,368c-6.12,4.94-11.5,6.3-17.66-.92-5.41-6.33-13.43-6.09-20.52-2.9-7.69,3.43-8,10.79-6.54,17.86,4.79,22.8-.68,40.93-22.68,52-2.63,1.33-4.67,3.61-6.89,5.59-10.06,9-22.18,10.26-33,4.23-13-7.19-25.46-8.72-39.63-6.09-8.61,1.63-18.28,2.43-26.38-.77-21.44-8.43-45.22,4-66-8.13a4.42,4.42,0,0,0-4.29.27c-10.08,8.34-21.56,3.73-32.53,3.73-7,0-13.57.83-18.4,7.22-4.55,6-11.65,6.83-18.72,7-7.87.24-15.7.12-23.54,1.48-24.66,4.32-48.12,2.66-67.72-15.44-6.09-8-14.82-10.85-24.16-12.39-7.72-1.3-14.11-4.88-17.63-11.77-6.65-13.1-13.84-24.72-31.5-22.12-1.51.24-3.22-2-4.73-3.25-6.15-4.55-14.31-7.42-17.71-14.37-5.68-11.56-14.67-12.39-25.32-10.5-2.93,1-4.82,3.4-6.95,5.38-14.11,13.19-14.08,13.19-24.9-.53-5.59-2.16-10.82.27-16.15,1.36a9.08,9.08,0,0,0-3.7,2.81c-2.66,6.65-.86,13.52-1.21,20.29C63.38,399,66.19,411,55.45,419.24c-6.24,4.52-12.33,9.29-17,15.53-10.5,8.19-14,19-13.28,32.06.65,11.65-.47,23.45.21,35.1,1.09,18.54.15,35.46-22.18,41.26-1.24.33-2.13,1.92-3.16,3C0,602,.15,657.9,0,713.77V908.38H2489.78Z"/><path class="cls-1" d="M1417.82,600.08v22a11.13,11.13,0,0,1-.1-1.83Q1417.79,610.16,1417.82,600.08Z"/></svg>